<mxfile host="app.diagrams.net" modified="2023-02-10T06:53:00.417Z" agent="5.0 (Windows NT 10.0; Win64; x64) AppleWebKit/537.36 (KHTML, like Gecko) Chrome/109.0.0.0 Safari/537.36" etag="QJWTJ1C6mDX5LEPqxnZg" version="20.8.19" type="github">
  <diagram name="Page-1" id="2YBvvXClWsGukQMizWep">
    <mxGraphModel dx="794" dy="1608" grid="1" gridSize="10" guides="1" tooltips="1" connect="1" arrows="1" fold="1" page="1" pageScale="1" pageWidth="850" pageHeight="1100" math="0" shadow="0">
      <root>
        <mxCell id="0" />
        <mxCell id="1" parent="0" />
        <mxCell id="aM9ryv3xv72pqoxQDRHE-1" value=":Object" style="shape=umlLifeline;perimeter=lifelinePerimeter;whiteSpace=wrap;html=1;container=0;dropTarget=0;collapsible=0;recursiveResize=0;outlineConnect=0;portConstraint=eastwest;newEdgeStyle={&quot;edgeStyle&quot;:&quot;elbowEdgeStyle&quot;,&quot;elbow&quot;:&quot;vertical&quot;,&quot;curved&quot;:0,&quot;rounded&quot;:0};" parent="1" vertex="1">
          <mxGeometry x="40" y="40" width="100" height="300" as="geometry" />
        </mxCell>
        <mxCell id="aM9ryv3xv72pqoxQDRHE-2" value="" style="html=1;points=[];perimeter=orthogonalPerimeter;outlineConnect=0;targetShapes=umlLifeline;portConstraint=eastwest;newEdgeStyle={&quot;edgeStyle&quot;:&quot;elbowEdgeStyle&quot;,&quot;elbow&quot;:&quot;vertical&quot;,&quot;curved&quot;:0,&quot;rounded&quot;:0};" parent="aM9ryv3xv72pqoxQDRHE-1" vertex="1">
          <mxGeometry x="45" y="70" width="10" height="190" as="geometry" />
        </mxCell>
        <mxCell id="aM9ryv3xv72pqoxQDRHE-3" value="dispatch" style="html=1;verticalAlign=bottom;startArrow=oval;endArrow=block;startSize=8;edgeStyle=elbowEdgeStyle;elbow=vertical;curved=0;rounded=0;" parent="aM9ryv3xv72pqoxQDRHE-1" target="aM9ryv3xv72pqoxQDRHE-2" edge="1">
          <mxGeometry relative="1" as="geometry">
            <mxPoint x="-15" y="70" as="sourcePoint" />
          </mxGeometry>
        </mxCell>
        <mxCell id="aM9ryv3xv72pqoxQDRHE-4" value="" style="html=1;points=[];perimeter=orthogonalPerimeter;outlineConnect=0;targetShapes=umlLifeline;portConstraint=eastwest;newEdgeStyle={&quot;edgeStyle&quot;:&quot;elbowEdgeStyle&quot;,&quot;elbow&quot;:&quot;vertical&quot;,&quot;curved&quot;:0,&quot;rounded&quot;:0};" parent="aM9ryv3xv72pqoxQDRHE-1" vertex="1">
          <mxGeometry x="50" y="120" width="10" height="80" as="geometry" />
        </mxCell>
        <mxCell id="aM9ryv3xv72pqoxQDRHE-5" value=":Object" style="shape=umlLifeline;perimeter=lifelinePerimeter;whiteSpace=wrap;html=1;container=0;dropTarget=0;collapsible=0;recursiveResize=0;outlineConnect=0;portConstraint=eastwest;newEdgeStyle={&quot;edgeStyle&quot;:&quot;elbowEdgeStyle&quot;,&quot;elbow&quot;:&quot;vertical&quot;,&quot;curved&quot;:0,&quot;rounded&quot;:0};" parent="1" vertex="1">
          <mxGeometry x="220" y="40" width="100" height="300" as="geometry" />
        </mxCell>
        <mxCell id="aM9ryv3xv72pqoxQDRHE-6" value="" style="html=1;points=[];perimeter=orthogonalPerimeter;outlineConnect=0;targetShapes=umlLifeline;portConstraint=eastwest;newEdgeStyle={&quot;edgeStyle&quot;:&quot;elbowEdgeStyle&quot;,&quot;elbow&quot;:&quot;vertical&quot;,&quot;curved&quot;:0,&quot;rounded&quot;:0};" parent="aM9ryv3xv72pqoxQDRHE-5" vertex="1">
          <mxGeometry x="45" y="80" width="10" height="170" as="geometry" />
        </mxCell>
        <mxCell id="aM9ryv3xv72pqoxQDRHE-7" value="dispatch" style="html=1;verticalAlign=bottom;endArrow=block;edgeStyle=elbowEdgeStyle;elbow=vertical;curved=0;rounded=0;" parent="1" source="aM9ryv3xv72pqoxQDRHE-2" target="aM9ryv3xv72pqoxQDRHE-6" edge="1">
          <mxGeometry relative="1" as="geometry">
            <mxPoint x="195" y="130" as="sourcePoint" />
            <Array as="points">
              <mxPoint x="180" y="120" />
            </Array>
          </mxGeometry>
        </mxCell>
        <mxCell id="aM9ryv3xv72pqoxQDRHE-8" value="return" style="html=1;verticalAlign=bottom;endArrow=open;dashed=1;endSize=8;edgeStyle=elbowEdgeStyle;elbow=vertical;curved=0;rounded=0;" parent="1" source="aM9ryv3xv72pqoxQDRHE-6" target="aM9ryv3xv72pqoxQDRHE-2" edge="1">
          <mxGeometry relative="1" as="geometry">
            <mxPoint x="195" y="205" as="targetPoint" />
            <Array as="points">
              <mxPoint x="190" y="280" />
            </Array>
          </mxGeometry>
        </mxCell>
        <mxCell id="aM9ryv3xv72pqoxQDRHE-9" value="callback" style="html=1;verticalAlign=bottom;endArrow=block;edgeStyle=elbowEdgeStyle;elbow=vertical;curved=0;rounded=0;" parent="1" source="aM9ryv3xv72pqoxQDRHE-6" target="aM9ryv3xv72pqoxQDRHE-4" edge="1">
          <mxGeometry relative="1" as="geometry">
            <mxPoint x="175" y="160" as="sourcePoint" />
            <Array as="points">
              <mxPoint x="190" y="160" />
            </Array>
          </mxGeometry>
        </mxCell>
        <mxCell id="aM9ryv3xv72pqoxQDRHE-10" value="return" style="html=1;verticalAlign=bottom;endArrow=open;dashed=1;endSize=8;edgeStyle=elbowEdgeStyle;elbow=vertical;curved=0;rounded=0;" parent="1" source="aM9ryv3xv72pqoxQDRHE-4" target="aM9ryv3xv72pqoxQDRHE-6" edge="1">
          <mxGeometry relative="1" as="geometry">
            <mxPoint x="175" y="235" as="targetPoint" />
            <Array as="points">
              <mxPoint x="180" y="230" />
            </Array>
          </mxGeometry>
        </mxCell>
        <mxCell id="k5exjZqTGMDhnHd9APun-1" value="" style="ellipse;whiteSpace=wrap;html=1;aspect=fixed;" vertex="1" parent="1">
          <mxGeometry x="90" y="-75" width="50" height="50" as="geometry" />
        </mxCell>
        <mxCell id="k5exjZqTGMDhnHd9APun-2" value="" style="endArrow=none;html=1;rounded=0;" edge="1" parent="1">
          <mxGeometry width="50" height="50" relative="1" as="geometry">
            <mxPoint x="90" y="6" as="sourcePoint" />
            <mxPoint x="140" y="6" as="targetPoint" />
          </mxGeometry>
        </mxCell>
        <mxCell id="k5exjZqTGMDhnHd9APun-3" value="" style="endArrow=none;html=1;rounded=0;" edge="1" parent="1">
          <mxGeometry width="50" height="50" relative="1" as="geometry">
            <mxPoint x="115" y="36" as="sourcePoint" />
            <mxPoint x="115" y="-24" as="targetPoint" />
          </mxGeometry>
        </mxCell>
        <mxCell id="k5exjZqTGMDhnHd9APun-4" value="" style="group" vertex="1" connectable="0" parent="1">
          <mxGeometry x="250" y="-44" width="70" height="60" as="geometry" />
        </mxCell>
        <mxCell id="k5exjZqTGMDhnHd9APun-5" value="" style="ellipse;whiteSpace=wrap;html=1;aspect=fixed;" vertex="1" parent="k5exjZqTGMDhnHd9APun-4">
          <mxGeometry x="10" width="60" height="60" as="geometry" />
        </mxCell>
        <mxCell id="k5exjZqTGMDhnHd9APun-6" value="" style="endArrow=none;html=1;rounded=0;" edge="1" parent="k5exjZqTGMDhnHd9APun-4">
          <mxGeometry width="50" height="50" relative="1" as="geometry">
            <mxPoint y="60" as="sourcePoint" />
            <mxPoint as="targetPoint" />
          </mxGeometry>
        </mxCell>
        <mxCell id="k5exjZqTGMDhnHd9APun-7" value="" style="endArrow=none;html=1;rounded=0;entryX=0;entryY=0.5;entryDx=0;entryDy=0;" edge="1" parent="k5exjZqTGMDhnHd9APun-4" target="k5exjZqTGMDhnHd9APun-5">
          <mxGeometry width="50" height="50" relative="1" as="geometry">
            <mxPoint y="30" as="sourcePoint" />
            <mxPoint x="200" y="220" as="targetPoint" />
          </mxGeometry>
        </mxCell>
        <mxCell id="k5exjZqTGMDhnHd9APun-8" value="" style="group;rotation=-90;" vertex="1" connectable="0" parent="1">
          <mxGeometry x="660" y="-44" width="70" height="60" as="geometry" />
        </mxCell>
        <mxCell id="k5exjZqTGMDhnHd9APun-9" value="" style="ellipse;whiteSpace=wrap;html=1;aspect=fixed;rotation=-90;" vertex="1" parent="k5exjZqTGMDhnHd9APun-8">
          <mxGeometry x="5" y="-5" width="60" height="60" as="geometry" />
        </mxCell>
        <mxCell id="k5exjZqTGMDhnHd9APun-10" value="" style="endArrow=none;html=1;rounded=0;" edge="1" parent="k5exjZqTGMDhnHd9APun-8">
          <mxGeometry width="50" height="50" relative="1" as="geometry">
            <mxPoint x="65" y="55" as="sourcePoint" />
            <mxPoint x="5" y="55" as="targetPoint" />
          </mxGeometry>
        </mxCell>
        <mxCell id="k5exjZqTGMDhnHd9APun-11" value="" style="group;rotation=-90;" vertex="1" connectable="0" parent="1">
          <mxGeometry x="440" y="-34" width="95" height="60" as="geometry" />
        </mxCell>
        <mxCell id="k5exjZqTGMDhnHd9APun-12" value="" style="endArrow=none;html=1;rounded=0;" edge="1" parent="k5exjZqTGMDhnHd9APun-11">
          <mxGeometry width="50" height="50" relative="1" as="geometry">
            <mxPoint x="25" y="-20" as="sourcePoint" />
            <mxPoint x="35" y="-10" as="targetPoint" />
          </mxGeometry>
        </mxCell>
        <mxCell id="k5exjZqTGMDhnHd9APun-13" value="" style="ellipse;whiteSpace=wrap;html=1;aspect=fixed;rotation=-90;" vertex="1" parent="k5exjZqTGMDhnHd9APun-11">
          <mxGeometry y="-10" width="60" height="60" as="geometry" />
        </mxCell>
        <mxCell id="k5exjZqTGMDhnHd9APun-14" value="" style="endArrow=none;html=1;rounded=0;" edge="1" parent="k5exjZqTGMDhnHd9APun-11">
          <mxGeometry width="50" height="50" relative="1" as="geometry">
            <mxPoint x="25" as="sourcePoint" />
            <mxPoint x="35" y="-10" as="targetPoint" />
          </mxGeometry>
        </mxCell>
      </root>
    </mxGraphModel>
  </diagram>
</mxfile>
